<svg xmlns="http://www.w3.org/2000/svg" viewBox="0 0 32 32" width="32" height="32">
  <!-- Statera flat brass mark (design-5.4c-2). Brass = --accent (44 68% 50%,
       #d6a829); ink glyph = --accent-foreground (26 44% 14%, #332214). The
       balance-scale glyph mirrors the in-app Scale mark. -->
  <rect width="32" height="32" rx="7" fill="#d6a829"/>
  <g transform="translate(4 4)" fill="none" stroke="#332214" stroke-width="2"
     stroke-linecap="round" stroke-linejoin="round">
    <path d="m16 16 3-8 3 8c-.87.65-1.92 1-3 1s-2.13-.35-3-1Z"/>
    <path d="m2 16 3-8 3 8c-.87.65-1.92 1-3 1s-2.13-.35-3-1Z"/>
    <path d="M7 21h10"/>
    <path d="M12 3v18"/>
    <path d="M3 7h2c2 0 5-1 7-2 2 1 5 2 7 2h2"/>
  </g>
</svg>
